<svg xmlns="http://www.w3.org/2000/svg" xmlns:xlink="http://www.w3.org/1999/xlink" viewBox="0 0 2101 1774"><defs><style>.cls-1{fill:#333356;}.cls-2{fill:#ffb;}.cls-3,.cls-4,.cls-5,.cls-6{fill:#4c57ad;}.cls-3,.cls-7{opacity:0.65;}.cls-5{opacity:0.71;}.cls-6{opacity:0.7;}.cls-7{fill:url(#Dégradé_sans_nom_11);}.cls-8{fill:#74b7fd;}.cls-9{fill:#58dbc8;}.cls-10{fill:#c4b52a;}.cls-11{fill:#28a5c6;}.cls-12{fill:#2ac461;}.cls-13{fill:#c4512a;}</style><linearGradient id="Dégradé_sans_nom_11" x1="966.5" y1="1249" x2="966.5" y2="168" gradientUnits="userSpaceOnUse"><stop offset="0" stop-color="#7fb8fe"/><stop offset="0.08" stop-color="#7fb8fe" stop-opacity="0.85"/><stop offset="0.22" stop-color="#7fb8fe" stop-opacity="0.63"/><stop offset="0.36" stop-color="#7fb8fe" stop-opacity="0.44"/><stop offset="0.5" stop-color="#7fb8fe" stop-opacity="0.28"/><stop offset="0.63" stop-color="#7fb8fe" stop-opacity="0.16"/><stop offset="0.76" stop-color="#7fb8fe" stop-opacity="0.07"/><stop offset="0.89" stop-color="#7fb8fe" stop-opacity="0.02"/><stop offset="1" stop-color="#7fb8fe" stop-opacity="0"/></linearGradient></defs><title>level_design_02</title><g id="Background"><rect class="cls-1" x="6.5" y="0.5" width="1920" height="1080"/><g id="Calque_7" data-name="Calque 7"><circle class="cls-2" cx="182.12" cy="149.15" r="11.57"/><circle class="cls-2" cx="120.39" cy="246.37" r="4.63"/><circle class="cls-2" cx="575.98" cy="141.56" r="11.57"/><circle class="cls-2" cx="1066" cy="343" r="15"/><circle class="cls-2" cx="1121.19" cy="163.03" r="11.57"/><circle class="cls-2" cx="1400.88" cy="41.98" r="11.57"/><circle class="cls-2" cx="299.41" cy="218.59" r="6.94"/><circle class="cls-2" cx="52.49" cy="119.82" r="6.94"/><circle class="cls-2" cx="388.15" cy="75.07" r="6.94"/><circle class="cls-2" cx="586" cy="317" r="6"/><circle class="cls-2" cx="723.81" cy="186.96" r="4.63"/><circle class="cls-2" cx="279.35" cy="32.63" r="4.63"/><circle class="cls-2" cx="791.71" cy="71.21" r="4.63"/><circle class="cls-2" cx="1270.89" cy="237.88" r="4.63"/><circle class="cls-2" cx="1599.12" cy="163.15" r="11.57"/><circle class="cls-2" cx="716.19" cy="336.03" r="11.57"/><circle class="cls-2" cx="1832.41" cy="203.59" r="6.94"/><circle class="cls-2" cx="1776.15" cy="89.07" r="6.94"/><circle class="cls-2" cx="1667.35" cy="46.63" r="4.63"/><circle class="cls-2" cx="1454.71" cy="288.21" r="4.63"/><circle class="cls-2" cx="887.89" cy="245.88" r="4.63"/><circle class="cls-2" cx="1641.44" cy="313.67" r="6.94"/></g><g id="Calque_11" data-name="Calque 11"><rect class="cls-3" x="7" y="468" width="348" height="845" rx="174" ry="174"/><rect class="cls-4" x="181" y="658" width="348" height="845" rx="174" ry="174"/><rect class="cls-5" x="815" y="468" width="348" height="1050" rx="174" ry="174"/><rect class="cls-6" x="1238" y="635" width="348" height="1050" rx="174" ry="174"/><rect class="cls-4" x="1023" y="724" width="348" height="1050" rx="174" ry="174"/><rect class="cls-6" x="1753" y="365" width="348" height="1050" rx="174" ry="174"/></g><g id="Calque_10" data-name="Calque 10"><rect class="cls-7" y="168" width="1933" height="1081"/></g></g><g id="cloud_1"><path class="cls-8" d="M253.67,522.5h0a10.83,10.83,0,0,1,10.83-10.83h62.67A10.83,10.83,0,0,0,338,500.83h0A10.83,10.83,0,0,0,327.17,490h-182a10.83,10.83,0,0,0-10.84,10.83h0a10.84,10.84,0,0,0,10.84,10.84h27.66a10.83,10.83,0,0,1,10.84,10.83h0a10.83,10.83,0,0,1-10.84,10.83H163.5a10.83,10.83,0,0,0-10.83,10.84h0A10.83,10.83,0,0,0,163.5,555h242a10.83,10.83,0,0,0,10.83-10.83h0a10.83,10.83,0,0,0-10.83-10.84h-141A10.83,10.83,0,0,1,253.67,522.5Z" transform="translate(7)"/></g><g id="cloud_2"><path class="cls-8" d="M557.67,907.5h0a10.83,10.83,0,0,1,10.83-10.83h4.67A10.83,10.83,0,0,0,584,885.83h0A10.83,10.83,0,0,0,573.17,875h-124a10.83,10.83,0,0,0-10.84,10.83h0a10.84,10.84,0,0,0,10.84,10.84h70.66a10.83,10.83,0,0,1,10.84,10.83h0a10.83,10.83,0,0,1-10.84,10.83H351.5a10.83,10.83,0,0,0-10.83,10.84h0A10.83,10.83,0,0,0,351.5,940h242a10.83,10.83,0,0,0,10.83-10.83h0a10.83,10.83,0,0,0-10.83-10.84h-25A10.83,10.83,0,0,1,557.67,907.5Z" transform="translate(7)"/></g><g id="cloud_3"><path class="cls-8" d="M884.33,284.5h0a10.83,10.83,0,0,1-10.83,10.83H822.83A10.83,10.83,0,0,0,812,306.17h0A10.83,10.83,0,0,0,822.83,317h112a10.83,10.83,0,0,0,10.84-10.83h0a10.84,10.84,0,0,0-10.84-10.84H922.17a10.83,10.83,0,0,1-10.84-10.83h0a10.83,10.83,0,0,1,10.84-10.83H1058.5a10.83,10.83,0,0,0,10.83-10.84h0A10.83,10.83,0,0,0,1058.5,252h-268a10.83,10.83,0,0,0-10.83,10.83h0a10.83,10.83,0,0,0,10.83,10.84h83A10.83,10.83,0,0,1,884.33,284.5Z" transform="translate(7)"/></g><g id="cloud_4"><path class="cls-8" d="M1351.33,602.5h0a10.83,10.83,0,0,1-10.83,10.83h-62.67A10.83,10.83,0,0,0,1267,624.17h0A10.83,10.83,0,0,0,1277.83,635h182a10.83,10.83,0,0,0,10.84-10.83h0a10.84,10.84,0,0,0-10.84-10.84h-27.66a10.83,10.83,0,0,1-10.84-10.83h0a10.83,10.83,0,0,1,10.84-10.83h67.33a10.83,10.83,0,0,0,10.83-10.84h0A10.83,10.83,0,0,0,1499.5,570h-268a10.83,10.83,0,0,0-10.83,10.83h0a10.83,10.83,0,0,0,10.83,10.84h109A10.83,10.83,0,0,1,1351.33,602.5Z" transform="translate(7)"/></g><g id="cloud_5"><path class="cls-8" d="M1601.33,292.5h0a10.83,10.83,0,0,1-10.83,10.83h-4.67A10.83,10.83,0,0,0,1575,314.17h0A10.83,10.83,0,0,0,1585.83,325h95a10.83,10.83,0,0,0,10.84-10.83h0a10.84,10.84,0,0,0-10.84-10.84h-41.66a10.83,10.83,0,0,1-10.84-10.83h0a10.83,10.83,0,0,1,10.84-10.83h78.33a10.83,10.83,0,0,0,10.83-10.84h0A10.83,10.83,0,0,0,1717.5,260h-210a10.83,10.83,0,0,0-10.83,10.83h0a10.83,10.83,0,0,0,10.83,10.84h83A10.83,10.83,0,0,1,1601.33,292.5Z" transform="translate(7)"/></g><g id="cloud_6"><path class="cls-8" d="M1645.67,804.5h0a10.83,10.83,0,0,1,10.83-10.83h80.67A10.83,10.83,0,0,0,1748,782.83h0A10.83,10.83,0,0,0,1737.17,772h-185a10.83,10.83,0,0,0-10.84,10.83h0a10.84,10.84,0,0,0,10.84,10.84h41.66a10.83,10.83,0,0,1,10.84,10.83h0a10.83,10.83,0,0,1-10.84,10.83H1521.5a10.83,10.83,0,0,0-10.83,10.84h0A10.83,10.83,0,0,0,1521.5,837h157a10.83,10.83,0,0,0,10.83-10.83h0a10.83,10.83,0,0,0-10.83-10.84h-22A10.83,10.83,0,0,1,1645.67,804.5Z" transform="translate(7)"/></g><g id="cadre"><rect class="cls-9" x="554" y="1025" width="786" height="55"/><polygon class="cls-9" points="1502 55 1871 55 1871 413 1926 413 1926 0 1502 0 1502 55"/><polygon class="cls-9" points="1871 561 1871 1025 1502 1025 1502 1080 1926 1080 1926 561 1871 561"/><rect class="cls-9" x="554" width="786" height="55"/><polygon class="cls-9" points="392 1025 62 1025 62 561 7 561 7 1080 392 1080 392 1025"/><polygon class="cls-9" points="62 413 62 55 392 55 392 0 7 0 7 413 62 413"/></g><g id="player_1"><rect class="cls-10" x="194" y="420" width="70" height="70"/></g><g id="player_2"><rect class="cls-11" x="488" y="805" width="70" height="70"/></g><g id="player_3"><rect class="cls-12" x="1326" y="500" width="70" height="70"/></g><g id="player_4"><rect class="cls-13" x="1601" y="702" width="70" height="70"/></g></svg>