<?xml version="1.0" encoding="UTF-8" standalone="no"?><!DOCTYPE svg PUBLIC "-//W3C//DTD SVG 1.1//EN" "http://www.w3.org/Graphics/SVG/1.1/DTD/svg11.dtd"><svg width="100%" height="100%" viewBox="0 0 1919 1080" version="1.1" xmlns="http://www.w3.org/2000/svg" xmlns:xlink="http://www.w3.org/1999/xlink" xml:space="preserve" xmlns:serif="http://www.serif.com/" style="fill-rule:evenodd;clip-rule:evenodd;stroke-linejoin:round;stroke-miterlimit:1.41421;"><g id="cadre"><rect x="547" y="1025" width="786" height="55" style="fill:#58dbc8;"/><path d="M1495,55l369,0l0,358l55,0l0,-413l-424,0l0,55Z" style="fill:#58dbc8;fill-rule:nonzero;"/><path d="M1864,561l0,464l-369,0l0,55l424,0l0,-519l-55,0Z" style="fill:#58dbc8;fill-rule:nonzero;"/><rect x="547" y="0" width="786" height="55" style="fill:#58dbc8;"/><path d="M385,1025l-330,0l0,-464l-55,0l0,519l385,0l0,-55Z" style="fill:#58dbc8;fill-rule:nonzero;"/><path d="M55,413l0,-358l330,0l0,-55l-385,0l0,413l55,0Z" style="fill:#58dbc8;fill-rule:nonzero;"/></g></svg>